<svg xmlns="http://www.w3.org/2000/svg" viewBox="0 0 55.9 95.55"><defs><style>.cls-1,.cls-2{fill:none;stroke:#ffffff;stroke-width:2.2px;}.cls-1{stroke-miterlimit:10;}.cls-2{stroke-linecap:round;stroke-linejoin:round;}</style></defs><g id="Layer_2" data-name="Layer 2"><g id="Layer_2-2" data-name="Layer 2"><polygon class="cls-1" points="40.69 94.45 14.95 94.45 8.94 58.7 46.69 58.7 40.69 94.45"/><path class="cls-1" d="M52.88,54.49c0,2.51-3.64,4.57-8.09,4.57h-34c-4.44,0-8.08-2.06-8.08-4.57s3.64-4.58,8.08-4.58h34C49.24,49.91,52.88,52,52.88,54.49Z"/><line class="cls-2" x1="27.81" y1="33.01" x2="27.81" y2="49.91"/><path class="cls-2" d="M8.32,35.58a19.49,19.49,0,0,1,39,0c0,5.67-6.29,14.34-6.29,14.34H14.62S8.32,41.25,8.32,35.58Z"/><line class="cls-2" x1="38.26" y1="49.92" x2="17.36" y2="49.92"/><path class="cls-2" d="M40.43,35.58c0,2.08-2,11.24-3.89,14.34"/><path class="cls-2" d="M19.08,49.92c-1.9-3.05-3.89-12.19-3.89-14.34"/><path class="cls-2" d="M42.14,5.1a8.66,8.66,0,0,0-8.66,8.66,8.54,8.54,0,0,0,.7,3.4,19.5,19.5,0,0,1,8,5.26,8.66,8.66,0,0,0,0-17.32Z"/><path class="cls-2" d="M10.88,25.94a19.53,19.53,0,0,1,4.86-5.65A5.7,5.7,0,1,0,10,26,4.68,4.68,0,0,0,10.88,25.94Z"/><line class="cls-2" x1="24.28" y1="16.42" x2="23.32" y2="12.53"/><line class="cls-2" x1="8.32" y1="35.09" x2="4.34" y2="34.84"/><line class="cls-2" x1="8.94" y1="39.13" x2="5.35" y2="40.98"/><line class="cls-2" x1="46.48" y1="30.01" x2="50.16" y2="28.36"/><line class="cls-2" x1="47.29" y1="35.58" x2="51.29" y2="35.58"/><line class="cls-2" x1="45.23" y1="42.75" x2="48.83" y2="44.48"/><line class="cls-2" x1="33.48" y1="5.1" x2="35.63" y2="8.06"/><line class="cls-2" x1="42.14" y1="1.1" x2="42.14" y2="5.1"/><line class="cls-2" x1="51.66" y1="5.44" x2="48.32" y2="7.7"/><line class="cls-2" x1="54.8" y1="16.1" x2="50.51" y2="15.93"/><line class="cls-2" x1="12.82" y1="11.03" x2="12.01" y2="14.97"/><line class="cls-2" x1="3.69" y1="13" x2="6.33" y2="15.93"/><line class="cls-2" x1="1.1" y1="24.07" x2="4.32" y2="22.42"/></g></g></svg>