<svg xmlns="http://www.w3.org/2000/svg" viewBox="0 0 52.34 98.05"><defs><style>.cls-1,.cls-2{fill:none;stroke:#231f20;stroke-width:2.2px;}.cls-1{stroke-miterlimit:10;}.cls-2{stroke-linecap:round;stroke-linejoin:round;}</style></defs><g id="Layer_2" data-name="Layer 2"><g id="Layer_2-2" data-name="Layer 2"><polygon class="cls-1" points="39.04 96.95 13.3 96.95 7.3 61.21 45.04 61.21 39.04 96.95"/><path class="cls-1" d="M51.24,57c0,2.51-3.64,4.57-8.09,4.57h-34C4.74,61.56,1.1,59.5,1.1,57s3.64-4.57,8.09-4.57h34C47.6,52.42,51.24,54.48,51.24,57Z"/><path class="cls-2" d="M21.42,3.74c3.2,3.19,2.59,9,2.59,9s-5.79.6-9-2.59-2.59-9-2.59-9S18.23.54,21.42,3.74Z"/><path class="cls-2" d="M30.92,3.74c-3.19,3.19-2.59,9-2.59,9s5.79.6,9-2.59,2.59-9,2.59-9S34.12.54,30.92,3.74Z"/><path class="cls-2" d="M37.36,52.47A83.9,83.9,0,0,0,40,32.93c0-14.62-6.2-15.13-13.84-15.13s-13.84.51-13.84,15.13A83.9,83.9,0,0,0,15,52.47Z"/><line class="cls-2" x1="13.25" y1="28.67" x2="22.76" y2="28.67"/><line class="cls-2" x1="29.64" y1="36.73" x2="39.15" y2="36.73"/><line class="cls-2" x1="13.2" y1="41.59" x2="20.49" y2="41.59"/></g></g></svg>