<svg xmlns="http://www.w3.org/2000/svg" viewBox="0 0 55.81 84.96"><defs><style>.cls-1,.cls-2{fill:none;stroke:#231f20;stroke-width:2.2px;}.cls-1{stroke-miterlimit:10;}.cls-2{stroke-linecap:round;stroke-linejoin:round;}</style></defs><g id="Layer_2" data-name="Layer 2"><g id="Layer_2-2" data-name="Layer 2"><polygon class="cls-1" points="39.04 83.86 13.3 83.86 7.3 48.11 45.04 48.11 39.04 83.86"/><path class="cls-1" d="M51.24,43.9c0,2.51-3.64,4.57-8.09,4.57h-34c-4.45,0-8.09-2.06-8.09-4.57s3.64-4.57,8.09-4.57h34C47.6,39.33,51.24,41.38,51.24,43.9Z"/><path class="cls-2" d="M45.68,4.65c-3.19,3.2-2.59,9-2.59,9s5.79.61,9-2.59,2.59-9,2.59-9S48.88,1.45,45.68,4.65Z"/><path class="cls-2" d="M52.07,19.86c3.2,3.19,2.59,9,2.59,9s-5.78.6-9-2.59-2.59-9-2.59-9S48.88,16.66,52.07,19.86Z"/><rect class="cls-2" x="30.08" y="1.1" width="7.5" height="38.23"/><line class="cls-2" x1="27.85" y1="1.1" x2="39.8" y2="1.1"/><rect class="cls-2" x="16.14" y="14.46" width="7.5" height="24.87"/><line class="cls-2" x1="13.92" y1="14.46" x2="39.87" y2="14.46"/><line class="cls-2" x1="13.92" y1="28.07" x2="39.87" y2="28.07"/></g></g></svg>