<svg xmlns="http://www.w3.org/2000/svg" viewBox="0 0 52.34 87.69"><defs><style>.cls-1,.cls-2{fill:none;stroke:#231f20;stroke-width:2.2px;}.cls-1{stroke-miterlimit:10;}.cls-2{stroke-linecap:round;stroke-linejoin:round;}</style></defs><g id="Layer_2" data-name="Layer 2"><g id="Layer_2-2" data-name="Layer 2"><polygon class="cls-1" points="39.04 86.58 13.3 86.58 7.3 50.84 45.04 50.84 39.04 86.58"/><path class="cls-1" d="M51.24,46.62c0,2.52-3.64,4.57-8.09,4.57h-34c-4.45,0-8.09-2-8.09-4.57s3.64-4.57,8.09-4.57h34C47.6,42.05,51.24,44.11,51.24,46.62Z"/><path class="cls-2" d="M40.34,22.1a31.43,31.43,0,0,0-7.71,5.43,17.79,17.79,0,0,1,2.69,8.91,15.91,15.91,0,0,1-1.09,5.61H44.64a15.32,15.32,0,0,0,.54-1.66C47.41,31.52,40.34,22.1,40.34,22.1Z"/><path class="cls-2" d="M19.6,27.73a31.51,31.51,0,0,0-7.92-5.63S4.61,31.52,6.84,40.39c.15.57.33,1.12.53,1.66H18.11A15.91,15.91,0,0,1,17,36.44,17.59,17.59,0,0,1,19.6,27.73Z"/><path class="cls-2" d="M26.17,19.88S17,27.3,17,36.44a15.91,15.91,0,0,0,1.09,5.61H34.23a15.91,15.91,0,0,0,1.09-5.61C35.32,27.3,26.17,19.88,26.17,19.88Z"/><path class="cls-2" d="M26.17,1.1S17,8.52,17,17.66a18.1,18.1,0,0,0,3,9.39,31.55,31.55,0,0,1,6.17-7.17,31.55,31.55,0,0,1,6.17,7.17,18.1,18.1,0,0,0,3-9.39C35.32,8.52,26.17,1.1,26.17,1.1Z"/><path class="cls-2" d="M22.08,24.11a1.15,1.15,0,0,0,.14-.17A2.09,2.09,0,0,1,22.08,24.11Z"/><path class="cls-2" d="M21.46,24.92l.1-.14Z"/><path class="cls-2" d="M22.6,23.49l.16-.19Z"/><path class="cls-2" d="M20.83,25.79c.07-.1.14-.21.22-.31C21,25.58,20.9,25.69,20.83,25.79Z"/><path class="cls-2" d="M24.05,21.88l.15-.16Z"/><path class="cls-2" d="M23.1,22.9l.16-.17Z"/><path class="cls-2" d="M23.59,22.37l.16-.17Z"/><path class="cls-2" d="M24.49,21.43l.13-.13Z"/><path class="cls-2" d="M25.8,20.2l.08-.07Z"/><path class="cls-2" d="M20,27l0,.06a18.1,18.1,0,0,1-3-9.39,17.88,17.88,0,0,1,2.79-9.07,31.81,31.81,0,0,0-7-4.77S5.73,13.24,8,22.11a14.93,14.93,0,0,0,1.48,3.67,28.39,28.39,0,0,1,2.24-3.68,31.51,31.51,0,0,1,7.92,5.63h0Z"/><path class="cls-2" d="M25.54,20.43l.1-.09Z"/><path class="cls-2" d="M20.3,26.59l.24-.37Z"/><path class="cls-2" d="M24.88,21.05l.13-.13Z"/><path class="cls-2" d="M25.24,20.71l.11-.1Z"/><path class="cls-2" d="M27,20.64l.17.16Z"/><path class="cls-2" d="M26.73,20.37l.13.12Z"/><path class="cls-2" d="M27.76,21.34l.24.24Z"/><path class="cls-2" d="M26.49,20.15l.1.09Z"/><path class="cls-2" d="M31.17,25.31c.12.17.24.33.35.5C31.41,25.64,31.29,25.48,31.17,25.31Z"/><path class="cls-2" d="M27.37,21c.07.06.14.14.21.21S27.44,21,27.37,21Z"/><path class="cls-2" d="M26.31,20l.08.06Z"/><path class="cls-2" d="M26.2,19.9l.05,0A.1.1,0,0,1,26.2,19.9Z"/><path class="cls-2" d="M28.63,22.24l.31.33Z"/><path class="cls-2" d="M39.48,3.82a31.44,31.44,0,0,0-7,4.73,18,18,0,0,1,2.81,9.11,18.1,18.1,0,0,1-3,9.39l-.14-.22c.15.23.29.46.43.7h0a31.43,31.43,0,0,1,7.71-5.43A29.26,29.26,0,0,1,42.7,26a15.15,15.15,0,0,0,1.62-3.91C46.55,13.24,39.48,3.82,39.48,3.82Z"/><path class="cls-2" d="M28.18,21.76l.28.3Z"/><path class="cls-2" d="M32,26.57c-.11-.18-.22-.35-.34-.51C31.81,26.22,31.92,26.39,32,26.57Z"/><path class="cls-2" d="M30.65,24.61l.35.47Z"/><path class="cls-2" d="M30.13,24l.35.45Z"/><path class="cls-2" d="M29.61,23.34c.12.13.23.27.35.41C29.84,23.61,29.73,23.47,29.61,23.34Z"/><path class="cls-2" d="M29.12,22.77l.32.37Z"/></g></g></svg>