<svg xmlns="http://www.w3.org/2000/svg" viewBox="0 0 52.34 98.97"><defs><style>.cls-1,.cls-2{fill:none;stroke:#231f20;stroke-width:2.2px;}.cls-1{stroke-miterlimit:10;}.cls-2{stroke-linecap:round;stroke-linejoin:round;}</style></defs><g id="Layer_2" data-name="Layer 2"><g id="Layer_2-2" data-name="Layer 2"><polygon class="cls-1" points="39.04 97.87 13.3 97.87 7.3 62.13 45.04 62.13 39.04 97.87"/><path class="cls-1" d="M51.24,57.91c0,2.51-3.64,4.57-8.09,4.57h-34c-4.45,0-8.09-2.06-8.09-4.57s3.64-4.57,8.09-4.57h34C47.6,53.34,51.24,55.4,51.24,57.91Z"/><line class="cls-2" x1="25.63" y1="29.59" x2="25.63" y2="53.34"/><path class="cls-2" d="M18.31,38.27c3.19,3.19,2.59,9,2.59,9s-5.79.6-9-2.59-2.59-9-2.59-9S15.11,35.07,18.31,38.27Z"/><path class="cls-2" d="M36.31,7.06s-2.79.67-6.19,1.76C27.87,4.64,25.63,1.1,25.63,1.1s-2.24,3.54-4.5,7.71C17.74,7.73,15,7.06,15,7.06a80.32,80.32,0,0,0,1.62,14.36,9.09,9.09,0,0,0,18.08.09C36.13,15.67,36.31,7.06,36.31,7.06Z"/><path class="cls-2" d="M25.63,26.16A5.65,5.65,0,0,1,20,21.07"/><path class="cls-2" d="M33,38.27c-3.2,3.19-2.6,9-2.6,9s5.79.6,9-2.59,2.59-9,2.59-9S36.15,35.07,33,38.27Z"/></g></g></svg>