<svg xmlns="http://www.w3.org/2000/svg" viewBox="0 0 52.34 95.64"><defs><style>.cls-1,.cls-2{fill:none;stroke:#231f20;stroke-width:2.2px;}.cls-1{stroke-miterlimit:10;}.cls-2{stroke-linecap:round;stroke-linejoin:round;}</style></defs><g id="Layer_2" data-name="Layer 2"><g id="Layer_2-2" data-name="Layer 2"><polygon class="cls-1" points="39.04 94.54 13.3 94.54 7.3 58.8 45.04 58.8 39.04 94.54"/><path class="cls-1" d="M51.24,54.23c0,2.51-3.64,4.57-8.09,4.57h-34c-4.45,0-8.09-2.06-8.09-4.57s3.64-4.57,8.09-4.57h34C47.6,49.66,51.24,51.71,51.24,54.23Z"/><circle class="cls-2" cx="26.17" cy="13.5" r="12.4" transform="translate(-0.33 0.66) rotate(-1.43)"/><circle class="cls-2" cx="22.9" cy="13.85" r="8.66" transform="matrix(0.02, -1, 1, 0.02, 8.54, 36.43)"/><path class="cls-2" d="M31.2,13.5a5.7,5.7,0,1,1-5.7-5.69A5.7,5.7,0,0,1,31.2,13.5Z"/><line class="cls-2" x1="26.17" y1="25.9" x2="26.17" y2="49.66"/><path class="cls-2" d="M18.91,34.59c3.19,3.19,2.59,9,2.59,9s-5.79.6-9-2.59-2.59-9-2.59-9S15.71,31.39,18.91,34.59Z"/><path class="cls-2" d="M33.56,34.59c-3.2,3.19-2.59,9-2.59,9s5.78.6,9-2.59,2.59-9,2.59-9S36.75,31.39,33.56,34.59Z"/></g></g></svg>