<svg xmlns="http://www.w3.org/2000/svg" viewBox="0 0 52.34 86.72"><defs><style>.cls-1,.cls-2{fill:none;stroke:#231f20;stroke-width:2.2px;}.cls-1{stroke-miterlimit:10;}.cls-2{stroke-linecap:round;stroke-linejoin:round;}</style></defs><g id="Layer_2" data-name="Layer 2"><g id="Layer_2-2" data-name="Layer 2"><polygon class="cls-1" points="39.04 85.62 13.3 85.62 7.3 49.87 45.04 49.87 39.04 85.62"/><path class="cls-1" d="M51.24,45.66c0,2.51-3.64,4.57-8.09,4.57h-34c-4.45,0-8.09-2.06-8.09-4.57s3.64-4.58,8.09-4.58h34C47.6,41.08,51.24,43.14,51.24,45.66Z"/><polygon class="cls-2" points="25.99 40.34 14.56 32.67 14.56 8.77 25.99 1.1 37.43 8.77 37.43 32.67 25.99 40.34"/><line class="cls-2" x1="14.58" y1="8.78" x2="25.82" y2="20.03"/><line class="cls-2" x1="14.58" y1="20.72" x2="25.82" y2="31.96"/><line class="cls-2" x1="37.41" y1="8.78" x2="26.17" y2="20.03"/><line class="cls-2" x1="37.41" y1="20.72" x2="26.17" y2="31.96"/><line class="cls-2" x1="25.99" y1="1.43" x2="25.99" y2="39.61"/></g></g></svg>