<svg xmlns="http://www.w3.org/2000/svg" viewBox="0 0 52.34 91.57"><defs><style>.cls-1,.cls-2{fill:none;stroke:#231f20;stroke-width:2.2px;}.cls-1{stroke-miterlimit:10;}.cls-2{stroke-linecap:round;stroke-linejoin:round;}</style></defs><g id="Layer_2" data-name="Layer 2"><g id="Layer_2-2" data-name="Layer 2"><polygon class="cls-1" points="39.04 90.47 13.3 90.47 7.3 54.72 45.04 54.72 39.04 90.47"/><path class="cls-1" d="M51.24,50.5c0,2.52-3.64,4.58-8.09,4.58h-34C4.74,55.08,1.1,53,1.1,50.5s3.64-4.57,8.09-4.57h34C47.6,45.93,51.24,48,51.24,50.5Z"/><path class="cls-2" d="M30.69,9.28c0,4.52-4.52,8.19-4.52,8.19s-4.52-3.67-4.52-8.19S26.17,1.1,26.17,1.1,30.69,4.76,30.69,9.28Z"/><line class="cls-2" x1="26.17" y1="22.11" x2="26.17" y2="45.87"/><path class="cls-2" d="M18.85,18.92c3.19,3.19,2.59,9,2.59,9s-5.79.6-9-2.59-2.6-9-2.6-9S15.65,15.72,18.85,18.92Z"/><path class="cls-2" d="M33.49,18.92c-3.19,3.19-2.59,9-2.59,9s5.79.6,9-2.59,2.58-9,2.58-9S36.69,15.72,33.49,18.92Z"/></g></g></svg>