<svg xmlns="http://www.w3.org/2000/svg" viewBox="0 0 52.34 82.68"><defs><style>.cls-1,.cls-2{fill:none;stroke:#231f20;stroke-width:2.2px;}.cls-1{stroke-miterlimit:10;}.cls-2{stroke-linecap:round;stroke-linejoin:round;}</style></defs><g id="Layer_2" data-name="Layer 2"><g id="Layer_2-2" data-name="Layer 2"><polygon class="cls-1" points="39.04 81.58 13.3 81.58 7.3 45.83 45.04 45.83 39.04 81.58"/><path class="cls-1" d="M51.24,41.62c0,2.51-3.64,4.57-8.09,4.57h-34c-4.45,0-8.09-2.06-8.09-4.57s3.64-4.57,8.09-4.57h34C47.6,37.05,51.24,39.1,51.24,41.62Z"/><line class="cls-2" x1="26.17" y1="12.76" x2="26.17" y2="36.52"/><line class="cls-2" x1="18.91" y1="12.76" x2="18.91" y2="36.52"/><line class="cls-2" x1="33.43" y1="22.79" x2="33.43" y2="36.52"/><path class="cls-2" d="M16.32,3.94c3.2,3.2,2.6,9,2.6,9s-5.79.6-9-2.6-2.59-9-2.59-9S13.13.75,16.32,3.94Z"/><path class="cls-2" d="M28.8,3.74c-3.19,3.19-2.59,9-2.59,9s5.79.6,9-2.59,2.59-9,2.59-9S32,.54,28.8,3.74Z"/><path class="cls-2" d="M36.07,14c-3.2,3.2-2.59,9-2.59,9s5.78.61,9-2.59,2.59-9,2.59-9S39.26,10.81,36.07,14Z"/></g></g></svg>