<svg xmlns="http://www.w3.org/2000/svg" viewBox="0 0 55.51 95.41"><defs><style>.cls-1,.cls-2{fill:none;stroke:#231f20;stroke-width:2.2px;}.cls-1{stroke-miterlimit:10;}.cls-2{stroke-linecap:round;stroke-linejoin:round;}</style></defs><g id="Layer_2" data-name="Layer 2"><g id="Layer_2-2" data-name="Layer 2"><polygon class="cls-1" points="40.56 94.31 14.82 94.31 8.82 58.56 46.57 58.56 40.56 94.31"/><path class="cls-1" d="M52.76,54.34c0,2.52-3.64,4.58-8.09,4.58h-34c-4.44,0-8.08-2.06-8.08-4.58s3.64-4.57,8.08-4.57h34C49.12,49.77,52.76,51.83,52.76,54.34Z"/><path class="cls-2" d="M36.34,9.76A8.66,8.66,0,1,1,27.68,1.1,8.66,8.66,0,0,1,36.34,9.76Z"/><path class="cls-2" d="M12.49,10.48A5.7,5.7,0,1,1,6.8,4.78,5.69,5.69,0,0,1,12.49,10.48Z"/><line class="cls-2" x1="27.69" y1="18.42" x2="27.69" y2="49.9"/><line class="cls-2" x1="10.9" y1="15.7" x2="27.69" y2="32.49"/><line class="cls-2" x1="44.48" y1="15.7" x2="27.69" y2="32.49"/><path class="cls-2" d="M12.49,27.23A5.7,5.7,0,1,1,6.8,21.54,5.7,5.7,0,0,1,12.49,27.23Z"/><line class="cls-2" x1="10.9" y1="32.45" x2="27.69" y2="49.25"/><line class="cls-2" x1="44.48" y1="32.45" x2="27.69" y2="49.25"/><path class="cls-2" d="M54.41,10.48a5.7,5.7,0,1,1-5.7-5.7A5.7,5.7,0,0,1,54.41,10.48Z"/><path class="cls-2" d="M54.41,27.23a5.7,5.7,0,1,1-5.7-5.69A5.7,5.7,0,0,1,54.41,27.23Z"/></g></g></svg>