<svg xmlns="http://www.w3.org/2000/svg" viewBox="0 0 52.34 91.41"><defs><style>.cls-1,.cls-2,.cls-3{fill:none;stroke:#231f20;stroke-width:2.2px;}.cls-1{stroke-miterlimit:10;}.cls-2,.cls-3{stroke-linecap:round;stroke-linejoin:round;}.cls-2{stroke-dasharray:5.56 5.56;}</style></defs><g id="Layer_2" data-name="Layer 2"><g id="Layer_2-2" data-name="Layer 2"><polygon class="cls-1" points="39.04 90.31 13.3 90.31 7.3 54.56 45.04 54.56 39.04 90.31"/><path class="cls-1" d="M51.24,50.35c0,2.51-3.64,4.57-8.09,4.57h-34c-4.45,0-8.09-2.06-8.09-4.57s3.64-4.57,8.09-4.57h34C47.6,45.78,51.24,47.83,51.24,50.35Z"/><circle class="cls-2" cx="26.16" cy="13.5" r="12.4" transform="translate(7.33 36.13) rotate(-77.53)"/><path class="cls-3" d="M34.82,13.5a8.66,8.66,0,1,1-8.65-8.66A8.65,8.65,0,0,1,34.82,13.5Z"/><line class="cls-3" x1="26.17" y1="22.02" x2="26.17" y2="45.78"/><path class="cls-3" d="M18.85,30.7c3.19,3.2,2.59,9,2.59,9s-5.79.6-9-2.59-2.6-9-2.6-9S15.65,27.51,18.85,30.7Z"/><path class="cls-3" d="M33.49,30.7c-3.19,3.2-2.59,9-2.59,9s5.79.6,9-2.59,2.59-9,2.59-9S36.69,27.51,33.49,30.7Z"/></g></g></svg>