<svg xmlns="http://www.w3.org/2000/svg" viewBox="0 0 52.34 96.04"><defs><style>.cls-1,.cls-2{fill:none;stroke:#231f20;stroke-width:2.2px;}.cls-1{stroke-miterlimit:10;}.cls-2{stroke-linecap:round;stroke-linejoin:round;}</style></defs><g id="Layer_2" data-name="Layer 2"><g id="Layer_2-2" data-name="Layer 2"><polygon class="cls-1" points="39.04 94.94 13.3 94.94 7.3 59.2 45.04 59.2 39.04 94.94"/><path class="cls-1" d="M51.24,55c0,2.52-3.64,4.57-8.09,4.57h-34c-4.45,0-8.09-2-8.09-4.57s3.64-4.57,8.09-4.57h34C47.6,50.41,51.24,52.47,51.24,55Z"/><path class="cls-2" d="M34.32,17.79a8.77,8.77,0,0,0,.51-2.91A8.65,8.65,0,0,0,31.69,8.2a5.9,5.9,0,0,0,.18-1.4,5.7,5.7,0,1,0-11.4,0,5.9,5.9,0,0,0,.18,1.4,8.65,8.65,0,0,0-3.14,6.68A8.77,8.77,0,0,0,18,17.79a12.4,12.4,0,1,0,16.3,0Z"/><path class="cls-2" d="M26,21.12a4.69,4.69,0,0,1-4.69-4.7"/><path class="cls-2" d="M26,31.2a4.69,4.69,0,0,1-4.69-4.69"/><path class="cls-2" d="M26.17,25.61a4.69,4.69,0,0,0,4.7-4.7"/><line class="cls-2" x1="26.17" y1="12.27" x2="26.17" y2="50.45"/></g></g></svg>