<svg xmlns="http://www.w3.org/2000/svg" viewBox="0 0 53.11 95.15"><defs><style>.cls-1,.cls-2{fill:none;stroke:#231f20;stroke-width:2.2px;}.cls-1{stroke-miterlimit:10;}.cls-2{stroke-linecap:round;stroke-linejoin:round;}</style></defs><g id="Layer_2" data-name="Layer 2"><g id="Layer_2-2" data-name="Layer 2"><polygon class="cls-1" points="39.42 94.05 13.69 94.05 7.68 58.3 45.43 58.3 39.42 94.05"/><path class="cls-1" d="M51.62,54.09c0,2.51-3.63,4.57-8.08,4.57h-34c-4.45,0-8.09-2.06-8.09-4.57s3.64-4.57,8.09-4.57h34C48,49.52,51.62,51.57,51.62,54.09Z"/><path class="cls-2" d="M43.35,12.05a8.59,8.59,0,0,0-4.41,1.22,12.39,12.39,0,0,0-24.78,0,8.66,8.66,0,1,0-4.4,16.11H43.35a8.66,8.66,0,0,0,0-17.32Z"/><line class="cls-2" x1="26.55" y1="17.43" x2="26.55" y2="48.91"/><line class="cls-2" x1="9.76" y1="20.71" x2="26.56" y2="37.51"/><line class="cls-2" x1="43.35" y1="20.71" x2="26.55" y2="37.51"/></g></g></svg>