<svg xmlns="http://www.w3.org/2000/svg" viewBox="0 0 52.34 102.37"><defs><style>.cls-1,.cls-2{fill:none;stroke:#231f20;stroke-width:2.2px;}.cls-1{stroke-miterlimit:10;}.cls-2{stroke-linecap:round;stroke-linejoin:round;}</style></defs><g id="Layer_2" data-name="Layer 2"><g id="Layer_2-2" data-name="Layer 2"><polygon class="cls-1" points="39.04 101.27 13.3 101.27 7.3 65.53 45.04 65.53 39.04 101.27"/><path class="cls-1" d="M51.24,61.31c0,2.51-3.64,4.57-8.09,4.57h-34c-4.45,0-8.09-2.06-8.09-4.57s3.64-4.57,8.09-4.57h34C47.6,56.74,51.24,58.79,51.24,61.31Z"/><path class="cls-2" d="M42.75,18.55A17.46,17.46,0,1,1,25.29,1.1,17.46,17.46,0,0,1,42.75,18.55Z"/><line class="cls-2" x1="34.53" y1="17.8" x2="25.29" y2="27.04"/><line class="cls-2" x1="15.7" y1="23.04" x2="24.93" y2="32.27"/><line class="cls-2" x1="25.29" y1="18.55" x2="25.29" y2="56.74"/></g></g></svg>