<svg xmlns="http://www.w3.org/2000/svg" viewBox="0 0 58.29 92.45"><defs><style>.cls-1,.cls-2{fill:none;stroke:#231f20;stroke-width:2.2px;}.cls-1{stroke-linecap:round;stroke-linejoin:round;}.cls-2{stroke-miterlimit:10;}</style></defs><g id="Layer_2" data-name="Layer 2"><g id="Layer_2-2" data-name="Layer 2"><path class="cls-1" d="M28.88,20.42a4.83,4.83,0,0,1-4.57-5V6.12a4.83,4.83,0,0,1,4.57-5,4.82,4.82,0,0,1,4.57,5V15.4A4.82,4.82,0,0,1,28.88,20.42Z"/><path class="cls-1" d="M16,22.16a4.82,4.82,0,0,1-6.78-.32L2.66,15.28A4.82,4.82,0,0,1,2.35,8.5a4.82,4.82,0,0,1,6.78.32l6.56,6.56A4.82,4.82,0,0,1,16,22.16Z"/><path class="cls-1" d="M42.28,22.16a4.82,4.82,0,0,0,6.78-.32l6.56-6.56a4.81,4.81,0,0,0,.32-6.78,4.82,4.82,0,0,0-6.78.32L42.6,15.38A4.82,4.82,0,0,0,42.28,22.16Z"/><polygon class="cls-2" points="42.58 91.34 16.84 91.34 10.84 55.6 48.58 55.6 42.58 91.34"/><path class="cls-2" d="M54.78,51.38c0,2.52-3.64,4.57-8.09,4.57h-34c-4.45,0-8.09-2.05-8.09-4.57s3.64-4.57,8.09-4.57h34C51.14,46.81,54.78,48.87,54.78,51.38Z"/><line class="cls-1" x1="28.88" y1="15.33" x2="28.88" y2="46.81"/><line class="cls-1" x1="12.09" y1="18.61" x2="28.89" y2="35.41"/><line class="cls-1" x1="45.68" y1="18.61" x2="28.88" y2="35.41"/></g></g></svg>