<svg xmlns="http://www.w3.org/2000/svg" viewBox="0 0 52.34 90.46"><defs><style>.cls-1,.cls-2{fill:none;stroke:#231f20;stroke-width:2.2px;}.cls-1{stroke-miterlimit:10;}.cls-2{stroke-linecap:round;stroke-linejoin:round;}</style></defs><g id="Layer_2" data-name="Layer 2"><g id="Layer_2-2" data-name="Layer 2"><polygon class="cls-1" points="39.04 89.36 13.3 89.36 7.3 53.62 45.04 53.62 39.04 89.36"/><path class="cls-1" d="M51.24,49.4c0,2.51-3.64,4.57-8.09,4.57h-34C4.74,54,1.1,51.91,1.1,49.4s3.64-4.57,8.09-4.57h34C47.6,44.83,51.24,46.88,51.24,49.4Z"/><path class="cls-2" d="M45.14,5.67c0,2.51-3.16,4.57-7,4.57H14.23c-3.87,0-7-2.06-7-4.57s3.16-4.57,7-4.57H38.11C42,1.1,45.14,3.16,45.14,5.67Z"/><path class="cls-2" d="M21.51,25.12a4.82,4.82,0,0,1-5,4.57H7.21a4.82,4.82,0,0,1-5-4.57,4.83,4.83,0,0,1,5-4.57h9.28A4.83,4.83,0,0,1,21.51,25.12Z"/><path class="cls-2" d="M50.38,19.31a4.83,4.83,0,0,1-5,4.57H36.09a4.83,4.83,0,0,1-5-4.57,4.83,4.83,0,0,1,5-4.58h9.27A4.83,4.83,0,0,1,50.38,19.31Z"/><path class="cls-2" d="M26.17,19.47a8.66,8.66,0,0,1-8.66-8.66"/><path class="cls-2" d="M26.17,33.41a8.66,8.66,0,0,0,8.66-8.66"/><path class="cls-2" d="M26.17,39.53a8.66,8.66,0,0,1-8.66-8.66"/><line class="cls-2" x1="26.17" y1="6.26" x2="26.17" y2="44.44"/></g></g></svg>